<?xml version="1.0" encoding="UTF-8"?>
<svg width="169px" height="169px" viewBox="0 0 169 169" version="1.1" xmlns="http://www.w3.org/2000/svg" xmlns:xlink="http://www.w3.org/1999/xlink">
    <!-- Generator: Sketch 59.1 (86144) - https://sketch.com -->
    <title>BackEnd</title>
    <desc>Created with Sketch.</desc>
    <defs>
        <polygon id="path-1" points="0 0.535954639 47.8635243 0.535954639 47.8635243 63 0 63"></polygon>
        <polygon id="path-3" points="0.609296703 0.0875510204 59.4059341 0.0875510204 59.4059341 32.6632653 0.609296703 32.6632653"></polygon>
    </defs>
    <g id="Page-1" stroke="none" stroke-width="1" fill="none" fill-rule="evenodd">
        <g id="Back-End-Icon-Copy" transform="translate(26.319672, 53.000000)">
            <path d="M26.1806596,16 C20.9335839,16 16.6803279,20.2534046 16.6803279,25.5 C16.6803279,30.7465954 20.9335839,35 26.1806596,35 C31.4270718,35 35.6803279,30.7465954 35.6803279,25.5 C35.6803279,20.2534046 31.4270718,16 26.1806596,16 Z" id="Fill-1" fill="#4C80A2"></path>
            <path d="M44.5640433,59 C44.6380426,58.3366774 44.6803279,57.6641146 44.6803279,56.9809914 C44.6803279,47.0509537 36.6216717,39 26.6806582,39 C16.7396448,39 8.68032787,47.0509537 8.68032787,56.9809914 C8.68032787,57.6641146 8.72261318,58.3366774 8.79661249,59 L44.5640433,59 Z" id="Fill-3" fill="#4C80A2"></path>
            <g id="Group-7" transform="translate(0.680328, 0.000000)">
                <mask id="mask-2" fill="white">
                    <use xlink:href="#path-1"></use>
                </mask>
                <g id="Clip-6"></g>
                <path d="M9.95779459,5.08234639 C6.97076757,5.08234639 4.54028108,7.51531546 4.54028108,10.5068412 L4.54028108,53.0292433 C4.54028108,56.0207691 6.97076757,58.4537381 9.95779459,58.4537381 L37.9067676,58.4537381 C40.8931459,58.4537381 43.3229838,56.0207691 43.3229838,53.0292433 L43.3229838,10.5068412 C43.3229838,7.51531546 40.8931459,5.08234639 37.9067676,5.08234639 L9.95779459,5.08234639 Z M37.9067676,63.0001299 L9.95779459,63.0001299 C4.46698378,63.0001299 -0.000259459459,58.5271299 -0.000259459459,53.0292433 L-0.000259459459,10.5068412 C-0.000259459459,5.00895464 4.46698378,0.535954639 9.95779459,0.535954639 L37.9067676,0.535954639 C43.3969297,0.535954639 47.8635243,5.00895464 47.8635243,10.5068412 L47.8635243,53.0292433 C47.8635243,58.5271299 43.3969297,63.0001299 37.9067676,63.0001299 L37.9067676,63.0001299 Z" id="Fill-5" fill="#4C80A2" mask="url(#mask-2)"></path>
            </g>
            <g id="Group-10" transform="translate(55.680328, 29.000000)">
                <mask id="mask-4" fill="white">
                    <use xlink:href="#path-3"></use>
                </mask>
                <g id="Clip-9"></g>
                <path d="M51.5914945,32.6632653 L8.42314286,32.6632653 C4.10775824,32.6632653 0.609296703,29.0891633 0.609296703,24.6813061 L0.609296703,8.06816327 C0.609296703,3.66097959 4.10775824,0.0875510204 8.42314286,0.0875510204 L51.5914945,0.0875510204 C55.9075385,0.0875510204 59.406,3.66097959 59.406,8.06816327 L59.406,24.6813061 C59.406,29.0891633 55.9075385,32.6632653 51.5914945,32.6632653" id="Fill-8" fill="#F6ABBD" mask="url(#mask-4)"></path>
            </g>
            <path d="M107.318945,18 L64.0417112,18 C59.9759746,18 56.6803279,14.4186067 56.6803279,10.0003534 C56.6803279,5.5821001 59.9759746,2 64.0417112,2 L107.318945,2 C111.384681,2 114.680328,5.5821001 114.680328,10.0003534 C114.680328,14.4186067 111.384681,18 107.318945,18" id="Fill-11" fill="#D42C41"></path>
        </g>
    </g>
</svg>