<?xml version="1.0" encoding="UTF-8"?>
<svg width="55px" height="44px" viewBox="0 0 55 44" version="1.1" xmlns="http://www.w3.org/2000/svg" xmlns:xlink="http://www.w3.org/1999/xlink">
    <!-- Generator: Sketch 59.1 (86144) - https://sketch.com -->
    <title>Contact Icon</title>
    <desc>Created with Sketch.</desc>
    <g id="Page-1" stroke="none" stroke-width="1" fill="none" fill-rule="evenodd">
        <g id="Landing-Copy" transform="translate(-692.000000, -2837.000000)" fill="#D42C41">
            <g id="Contact-Icon" transform="translate(691.863467, 2837.000000)">
                <path d="M31.4222851,25.087325 C30.3077477,25.9374554 28.9720589,26.3623553 27.6363702,26.3623553 C26.3006815,26.3623553 24.965318,25.9374554 23.8504553,25.087325 L0.136532822,7 L0.136532822,40.1844906 C0.136532822,42.2918095 1.81793305,44 3.89187682,44 L51.3811888,44 C53.4551326,44 55.1365328,42.2918095 55.1365328,40.1844906 L55.1365328,7 L31.4222851,25.087325 Z" id="Fill-1"></path>
                <path d="M25.4908048,21.4359364 C26.4600138,22.1880212 27.8127251,22.1880212 28.7819341,21.4359364 L54.1365328,1.75711594 C53.4619738,0.699401712 52.303627,0 50.9865219,0 L3.28654371,0 C1.96943867,0 0.811091827,0.699401712 0.136532822,1.75711594 L25.4908048,21.4359364 Z" id="Fill-3"></path>
            </g>
        </g>
    </g>
</svg>