<?xml version="1.0" encoding="UTF-8"?>
<svg width="169px" height="169px" viewBox="0 0 169 169" version="1.1" xmlns="http://www.w3.org/2000/svg" xmlns:xlink="http://www.w3.org/1999/xlink">
    <!-- Generator: Sketch 59.1 (86144) - https://sketch.com -->
    <title>Front End</title>
    <desc>Created with Sketch.</desc>
    <defs>
        <polygon id="path-1" points="0 0.396585859 32.8793351 0.396585859 32.8793351 66.3786175 0 66.3786175"></polygon>
        <polygon id="path-3" points="0.481911567 0.396585859 32.70333 0.396585859 32.70333 66.3784098 0.481911567 66.3784098"></polygon>
        <polygon id="path-5" points="0.464729268 0.177784502 26.8614774 0.177784502 26.8614774 54.9219858 0.464729268 54.9219858"></polygon>
    </defs>
    <g id="Page-1" stroke="none" stroke-width="1" fill="none" fill-rule="evenodd">
        <g id="Front-End-Icon-Copy" transform="translate(41.888889, 38.000000)">
            <g id="Group-3" transform="translate(0.111111, 0.346457)">
                <mask id="mask-2" fill="white">
                    <use xlink:href="#path-1"></use>
                </mask>
                <g id="Clip-2"></g>
                <path d="M20.6839286,64.3660202 L-0.000336734694,35.1756768 L24.2836224,2.33078788 C25.8541531,0.206414141 28.8403163,-0.236191919 30.9543367,1.3420303 C33.0683571,2.92025253 33.5088061,5.92171717 31.9382755,8.04541414 L11.7907653,35.2947879 L28.4517245,58.8070505 C29.9798265,60.9632323 29.4794388,63.9552222 27.3337653,65.4894545 C25.1880918,67.0250404 22.2120306,66.5215253 20.6839286,64.3660202" id="Fill-1" fill="#D42C41" mask="url(#mask-2)"></path>
            </g>
            <g id="Group-6" transform="translate(52.111111, 0.346457)">
                <mask id="mask-4" fill="white">
                    <use xlink:href="#path-3"></use>
                </mask>
                <g id="Clip-5"></g>
                <path d="M12.43341,2.40875152 L32.70333,31.5997717 L8.90571,64.4439838 C7.36659,66.5683576 4.44015,67.0109636 2.36841,65.4327414 C0.29667,63.8545192 -0.13497,60.8530545 1.40415,58.7293576 L21.14871,31.4799838 L4.82031,7.96772121 C3.32343,5.81153939 3.81381,2.82022626 5.91657,1.28531717 C8.01933,-0.249591919 10.93587,0.253246465 12.43341,2.40875152" id="Fill-4" fill="#D42C41" mask="url(#mask-4)"></path>
            </g>
            <g id="Group-9" transform="translate(43.111111, 41.346457)">
                <mask id="mask-6" fill="white">
                    <use xlink:href="#path-5"></use>
                </mask>
                <g id="Clip-8"></g>
                <path d="M22.8286317,50.4964942 L16.470461,33.7351178 L24.7186317,33.6761276 C26.5724122,33.6632446 27.5444122,31.4060188 26.3103146,29.9821155 L0.464729268,0.177784502 L0.464729268,41.1156835 C0.464729268,43.134236 2.87168049,44.1024902 4.20126585,42.6189186 L10.5923634,35.4858409 L17.2304122,52.986969 C17.8237537,54.5505505 19.5359488,55.3235266 21.0551927,54.7132823 L23.9810707,53.5361888" id="Fill-7" fill="#4C80A2" mask="url(#mask-6)"></path>
            </g>
        </g>
    </g>
</svg>