<svg xmlns="http://www.w3.org/2000/svg" xmlns:xlink="http://www.w3.org/1999/xlink" width="1440" height="1200"><g transform="translate(0 0)"><path d="M0 0h1440v1200H0z" fill="#fff"/><path d="M659.34 585c0-2.76 2.24-5 5-5h132.2c2.77 0 5 2.24 5 5v50.32c0 2.76-2.23 5-5 5h-132.2c-2.76 0-5-2.24-5-5z" stroke="#000" stroke-width="4" fill="#f7bcae"/><use xlink:href="#a" transform="matrix(1,0,0,1,659.3402443095598,580.0000000000001) translate(42.32 36.583333333333336)"/><path d="M854.34 585c0-2.76 2.24-5 5-5h132.2c2.77 0 5 2.24 5 5v50.32c0 2.76-2.23 5-5 5h-132.2c-2.76 0-5-2.24-5-5z" stroke="#7e6953" stroke-width="2" fill="#fcd1a5"/><use xlink:href="#b" transform="matrix(1,0,0,1,854.3402443095597,580.0000000000001) translate(16.24000000000001 37.275)"/><use xlink:href="#c" transform="matrix(1,0,0,1,854.3402443095597,580.0000000000001) translate(62.914 37.275)"/><path d="M652.23 711.98c0-2.76 2.24-5 5-5h146.43c2.77 0 5 2.24 5 5v56.35c0 2.76-2.23 5-5 5H657.23c-2.76 0-5-2.24-5-5z" stroke="#7e6953" stroke-width="2" fill="#fcd1a5"/><use xlink:href="#d" transform="matrix(1,0,0,1,652.2295939301971,706.9842236790331) translate(35.236999999999995 39.525)"/><path d="M659.34 455c0-2.76 2.24-5 5-5h132.2c2.77 0 5 2.24 5 5v50.32c0 2.76-2.23 5-5 5h-132.2c-2.76 0-5-2.24-5-5z" stroke="#7e6953" stroke-width="2" fill="#fcd1a5"/><use xlink:href="#e" transform="matrix(1,0,0,1,659.3402443095598,450.0000000000001) translate(37.37199999999999 37.275)"/><path d="M464.34 585c0-2.76 2.24-5 5-5h132.2c2.77 0 5 2.24 5 5v50.32c0 2.76-2.23 5-5 5h-132.2c-2.76 0-5-2.24-5-5z" stroke="#7e6953" stroke-width="2" fill="#fcd1a5"/><use xlink:href="#f" transform="matrix(1,0,0,1,464.3402443095598,580.0000000000001) translate(43.75300000000001 37.275)"/><path d="M659.34 610.16h-52.8M801.55 610.16h52.8M730.45 640.32v66.66M730.45 580v-69.68" stroke="#000" stroke-width="2" fill="none"/><path d="M753.45 942.58c0-2.76 2.24-5 5-5h132.2c2.77 0 5 2.24 5 5v50.3c0 2.78-2.23 5-5 5h-132.2c-2.76 0-5-2.22-5-5z" stroke="#7a6959" stroke-width="2" fill="#f3d2b1"/><use xlink:href="#g" transform="matrix(1,0,0,1,753.4467481031865,937.5788816696033) translate(42.196000000000005 37.275)"/><path d="M844.34 832.84c0-2.76 2.24-5 5-5h132.2c2.77 0 5 2.24 5 5v50.32c0 2.76-2.23 5-5 5h-132.2c-2.76 0-5-2.24-5-5z" stroke="#7a6959" stroke-width="2" fill="#f3d2b1"/><use xlink:href="#h" transform="matrix(1,0,0,1,844.3402443095599,827.8422368550989) translate(29.44299999999999 37.275)"/><path d="M1234.34 534.16c0-2.76 2.24-5 5-5h132.2c2.77 0 5 2.24 5 5v50.3c0 2.77-2.23 5-5 5h-132.2c-2.76 0-5-2.23-5-5z" stroke="#756a5f" stroke-width="2" fill="#e9d4be"/><use xlink:href="#i" transform="matrix(1,0,0,1,1234.34024430956,529.1577632096697) translate(40.729 37.275)"/><path d="M1234.23 638.16c0-2.76 2.24-5 5-5h132.22c2.76 0 5 2.24 5 5v50.3c0 2.77-2.24 5-5 5h-132.22c-2.76 0-5-2.23-5-5z" stroke="#756a5f" stroke-width="2" fill="#e9d4be"/><use xlink:href="#j" transform="matrix(1,0,0,1,1234.233740515933,633.1577632096697) translate(51.511 37.275)"/><path d="M1039.34 715c0-2.76 2.24-5 5-5h132.2c2.77 0 5 2.24 5 5v50.32c0 2.76-2.23 5-5 5h-132.2c-2.76 0-5-2.24-5-5z" stroke="#7a6959" stroke-width="2" fill="#f3d2b1"/><use xlink:href="#k" transform="matrix(1,0,0,1,1039.3402443095597,710.0000000000001) translate(48.784 37.275)"/><path d="M1039.34 585c0-2.76 2.24-5 5-5h132.2c2.77 0 5 2.24 5 5v50.32c0 2.76-2.23 5-5 5h-132.2c-2.76 0-5-2.24-5-5z" stroke="#7a6959" stroke-width="2" fill="#f3d2b1"/><use xlink:href="#l" transform="matrix(1,0,0,1,1039.3402443095597,580.0000000000001) translate(54.463 37.275)"/><path d="M1039.34 455c0-2.76 2.24-5 5-5h132.2c2.77 0 5 2.24 5 5v50.32c0 2.76-2.23 5-5 5h-132.2c-2.76 0-5-2.24-5-5z" stroke="#7a6959" stroke-width="2" fill="#f3d2b1"/><use xlink:href="#m" transform="matrix(1,0,0,1,1039.3402443095597,450.0000000000001) translate(50.701 37.275)"/><path d="M753.45 65c0-2.76 2.24-5 5-5h132.2c2.77 0 5 2.24 5 5v50.32c0 2.76-2.23 5-5 5h-132.2c-2.76 0-5-2.24-5-5z" stroke="#706b65" stroke-width="2" fill="#e0d5ca"/><use xlink:href="#n" transform="matrix(1,0,0,1,753.4467481031866,60.00000000000001) translate(50.656 37.275)"/><path d="M568.45 65c0-2.76 2.24-5 5-5h132.2c2.77 0 5 2.24 5 5v50.32c0 2.76-2.23 5-5 5h-132.2c-2.76 0-5-2.24-5-5z" stroke="#706b65" stroke-width="2" fill="#e0d5ca"/><use xlink:href="#o" transform="matrix(1,0,0,1,568.4467481031866,60.00000000000001) translate(31.351 37.275)"/><path d="M474.34 195c0-2.76 2.24-5 5-5h132.2c2.77 0 5 2.24 5 5v50.32c0 2.76-2.23 5-5 5h-132.2c-2.76 0-5-2.24-5-5z" stroke="#756a5f" stroke-width="2" fill="#e9d4be"/><use xlink:href="#p" transform="matrix(1,0,0,1,474.3402443095598,190.00000000000006) translate(42.63700000000001 37.275)"/><path d="M844.34 195c0-2.76 2.24-5 5-5h132.2c2.77 0 5 2.24 5 5v50.32c0 2.76-2.23 5-5 5h-132.2c-2.76 0-5-2.24-5-5z" stroke="#756a5f" stroke-width="2" fill="#e9d4be"/><use xlink:href="#q" transform="matrix(1,0,0,1,844.3402443095599,190.00000000000006) translate(40.945 37.275)"/><path d="M659.34 195c0-2.76 2.24-5 5-5h132.2c2.77 0 5 2.24 5 5v50.32c0 2.76-2.23 5-5 5h-132.2c-2.76 0-5-2.24-5-5z" stroke="#756a5f" stroke-width="2" fill="#e9d4be"/><use xlink:href="#r" transform="matrix(1,0,0,1,659.3402443095598,190.00000000000006) translate(30.127000000000002 37.275)"/><path d="M652.23 191.98c0-2.76 2.24-5 5-5h146.43c2.77 0 5 2.24 5 5v56.35c0 2.76-2.23 5-5 5H657.23c-2.76 0-5-2.24-5-5z" stroke="#756a5f" stroke-width="2" fill="#e9d4be"/><use xlink:href="#s" transform="matrix(1,0,0,1,652.2295939301971,186.9842236790331) translate(31.699999999999996 39.525)"/><path d="M474.34 325c0-2.76 2.24-5 5-5h132.2c2.77 0 5 2.24 5 5v50.32c0 2.76-2.23 5-5 5h-132.2c-2.76 0-5-2.24-5-5z" stroke="#7a6959" stroke-width="2" fill="#f3d2b1"/><use xlink:href="#t" transform="matrix(1,0,0,1,474.3402443095598,320.0000000000001) translate(31.126000000000005 37.275)"/><use xlink:href="#u" transform="matrix(1,0,0,1,474.3402443095598,320.0000000000001) translate(59.026 37.275)"/><path d="M844.34 325c0-2.76 2.24-5 5-5h132.2c2.77 0 5 2.24 5 5v50.32c0 2.76-2.23 5-5 5h-132.2c-2.76 0-5-2.24-5-5z" stroke="#7a6959" stroke-width="2" fill="#f3d2b1"/><use xlink:href="#v" transform="matrix(1,0,0,1,844.3402443095599,320.0000000000001) translate(37.939 37.275)"/><path d="M659.34 325c0-2.76 2.24-5 5-5h132.2c2.77 0 5 2.24 5 5v50.32c0 2.76-2.23 5-5 5h-132.2c-2.76 0-5-2.24-5-5z" stroke="#7a6959" stroke-width="2" fill="#f3d2b1"/><use xlink:href="#w" transform="matrix(1,0,0,1,659.3402443095598,320.0000000000001) translate(51.61 37.275)"/><path d="M730.45 450v-69.68M730.45 319v-64.57" stroke="#000" stroke-width="2" fill="none"/><path d="M731.45 320h-2v-1h2zM731.45 254.43h-2v-1.1h2z"/><path d="M730.45 319v-67.68" stroke="#000" stroke-width="2" fill="none"/><path d="M731.45 320h-2v-1h2zM731.45 251.32h-2v-1h2z"/><path d="M915.45 320v-69.68M545.45 320v-69.68M707.25 186.98l-46.6-66.66" stroke="#000" stroke-width="2" fill="none"/><path d="M708.47 186.98h-1.22l.82-.57zM659.82 120.9l-.4-.58h1.22z"/><path d="M754.46 186.98l48.26-66.66" stroke="#000" stroke-width="2" fill="none"/><path d="M754.46 186.98h-1.23l.42-.58zM803.53 120.9l-.8-.58h1.23z"/><path d="M968.36 580l99.17-69.68" stroke="#000" stroke-width="2" fill="none"/><path d="M968.36 580h-1.74l1.17-.82zM1068.1 511.13l-.57-.8h1.74z"/><path d="M996.55 610.16h42.8M968.36 640.32l99.17 69.68" stroke="#000" stroke-width="2" fill="none"/><path d="M967.8 641.13l-1.18-.8h1.74zM1069.27 710h-1.74l.57-.82z"/><path d="M1181.55 629.55l52.68 14.37" stroke="#000" stroke-width="2" fill="none"/><path d="M1181.82 628.6l-.27.95v-1.03zM1234.23 644.96l-.26-.07.26-.98z"/><path d="M1181.55 591.62l52.8-13.76" stroke="#000" stroke-width="2" fill="none"/><path d="M1181.8 592.6l-.25.05v-1.03zM1234.34 577.86l-.25-.97.24-.08z"/><path d="M259.34 749.5c0-2.76 2.24-5 5-5h132.2c2.77 0 5 2.24 5 5v50.32c0 2.76-2.23 5-5 5h-132.2c-2.76 0-5-2.24-5-5z" stroke="#7a6959" stroke-width="2" fill="#f3d2b1"/><use xlink:href="#x" transform="matrix(1,0,0,1,259.3402443095599,744.5000000000001) translate(51.853 37.275)"/><path d="M259.34 522.5c0-2.76 2.24-5 5-5h132.2c2.77 0 5 2.24 5 5v50.32c0 2.76-2.23 5-5 5h-132.2c-2.76 0-5-2.24-5-5z" stroke="#7a6959" stroke-width="2" fill="#f3d2b1"/><use xlink:href="#y" transform="matrix(1,0,0,1,259.3402443095599,517.5000000000001) translate(46.228 37.275)"/><path d="M259.34 633.18c0-2.76 2.24-5 5-5h132.2c2.77 0 5 2.24 5 5v50.32c0 2.76-2.23 5-5 5h-132.2c-2.76 0-5-2.24-5-5z" stroke="#7a6959" stroke-width="2" fill="#f3d2b1"/><use xlink:href="#z" transform="matrix(1,0,0,1,259.3402443095599,628.1844735806609) translate(45.481 37.275)"/><path d="M259.34 420.5c0-2.76 2.24-5 5-5h132.2c2.77 0 5 2.24 5 5v50.32c0 2.76-2.23 5-5 5h-132.2c-2.76 0-5-2.24-5-5z" stroke="#7a6959" stroke-width="2" fill="#f3d2b1"/><use xlink:href="#A" transform="matrix(1,0,0,1,259.3402443095599,415.5000000000001) translate(57.829 37.275)"/><path d="M659.66 1072.26c0-2.76 2.24-5 5-5h132.2c2.77 0 5 2.24 5 5v50.32c0 2.76-2.23 5-5 5h-132.2c-2.76 0-5-2.24-5-5z" stroke="#756a5f" stroke-width="2" fill="#e9d4be"/><use xlink:href="#B" transform="matrix(1,0,0,1,659.65975569044,1067.2633552502639) translate(47.722 37.275)"/><path d="M476.05 1072.58c0-2.76 2.24-5 5-5h132.22c2.76 0 5 2.24 5 5v50.3c0 2.78-2.24 5-5 5H481.05c-2.76 0-5-2.22-5-5z" stroke="#756a5f" stroke-width="2" fill="#e9d4be"/><use xlink:href="#C" transform="matrix(1,0,0,1,476.05325189681344,1067.578881669603) translate(53.662 37.275)"/><path d="M568.45 942.26c0-2.76 2.24-5 5-5h132.2c2.77 0 5 2.24 5 5v50.32c0 2.76-2.23 5-5 5h-132.2c-2.76 0-5-2.24-5-5z" stroke="#7a6959" stroke-width="2" fill="#f3d2b1"/><use xlink:href="#D" transform="matrix(1,0,0,1,568.4467481031865,937.2633552502641) translate(36.022 37.275)"/><path d="M474.34 832.84c0-2.76 2.24-5 5-5h132.2c2.77 0 5 2.24 5 5v50.32c0 2.76-2.23 5-5 5h-132.2c-2.76 0-5-2.24-5-5z" stroke="#7a6959" stroke-width="2" fill="#f3d2b1"/><use xlink:href="#E" transform="matrix(1,0,0,1,474.3402443095598,827.8422368550989) translate(41.88100000000001 37.275)"/><path d="M730.45 774.43l94.1 162.15" stroke="#000" stroke-width="2" fill="none"/><path d="M731.3 773.93l-1.72 1-.93-1.6h2.3zM826.3 937.58h-2.32l-.3-.5 1.74-1z"/><path d="M730.45 774.43l-90.9 161.83" stroke="#000" stroke-width="2" fill="none"/><path d="M731.32 774.92l-1.75-.98.35-.6h2.3zM640.43 936.75l-.3.5h-2.3l.85-1.48z"/><path d="M660.7 997.58l48.9 69.68" stroke="#000" stroke-width="2" fill="none"/><path d="M659.9 998.15l-.4-.57h1.2zM710.83 1067.26h-1.22l.83-.57z"/><path d="M618.17 997.58l-49.63 70" stroke="#000" stroke-width="2" fill="none"/><path d="M619 998.16l-.83-.58h1.23zM568.54 1067.58h-1.22l.4-.58z"/><path d="M497.86 580L368.03 475.82" stroke="#000" stroke-width="2" fill="none"/><path d="M499.46 580h-1.6l.63-.78zM367.4 476.6l-.97-.78h1.6z"/><path d="M464.34 626.87l-62.8 14.76" stroke="#000" stroke-width="2" fill="none"/><path d="M464.34 626.87l-.23-.97.24-.06zM401.78 642.6l-.23.06v-1.03z"/><path d="M464.34 588.48l-62.8-19.14" stroke="#000" stroke-width="2" fill="none"/><path d="M464.34 589.52l-.3-.08.3-.96zM401.84 568.38l-.3.96v-1.05z"/><path d="M497.86 640.32L368.03 744.5" stroke="#000" stroke-width="2" fill="none"/><path d="M498.5 641.1l-.64-.78h1.6zM368.03 744.5h-1.6l.97-.78z"/><path d="M63.45 698c0-2.76 2.24-5 5-5h132.2c2.77 0 5 2.24 5 5v50.32c0 2.76-2.23 5-5 5H68.46c-2.76 0-5-2.24-5-5z" stroke="#756a5f" stroke-width="2" fill="#e9d4be"/><use xlink:href="#F" transform="matrix(1,0,0,1,63.446748103186565,693.0000000000001) translate(47.236 37.275)"/><path d="M63.45 813c0-2.76 2.24-5 5-5h132.2c2.77 0 5 2.24 5 5v50.32c0 2.76-2.23 5-5 5H68.46c-2.76 0-5-2.24-5-5z" stroke="#756a5f" stroke-width="2" fill="#e9d4be"/><use xlink:href="#G" transform="matrix(1,0,0,1,63.446748103186565,808.0000000000001) translate(42.079 37.275)"/><path d="M259.34 797.7l-53.68 17.4" stroke="#000" stroke-width="2" fill="none"/><path d="M259.34 797.7l-.3-.94.3-.1zM205.97 816.06l-.3.1v-1.05z"/><path d="M259.34 755.96l-53.68-14.1" stroke="#000" stroke-width="2" fill="none"/><path d="M259.34 757l-.25-.07.24-.97zM205.9 740.88l-.24.97v-1.03z"/><path d="M730.45 773.33l-185 54.5" stroke="#000" stroke-width="2" fill="none"/><path d="M733.6 773.44l-2.87.85-.28-.97h3.12zM545.45 827.84h-3.13l-.03-.1 2.86-.86z"/><path d="M730.45 773.33l185 54.5" stroke="#000" stroke-width="2" fill="none"/><path d="M730.16 774.3l-2.87-.86.02-.1h3.13zM918.6 827.73l-.03.1h-3.12l.28-.95z"/><path d="M773.36 450l99.17-69.68" stroke="#000" stroke-width="2" fill="none"/><path d="M773.36 450h-1.74l1.17-.82zM873.1 381.13l-.57-.8h1.74z"/><path d="M687.53 450l-99.17-69.68" stroke="#000" stroke-width="2" fill="none"/><path d="M689.27 450h-1.74l.57-.82zM587.8 381.13l-1.18-.8h1.74z"/><defs><path d="M27-26l87-37v-566l-89-37v-26h463v187h-25l-49-114H205v232h146l35-94h22v259h-22l-35-92H204v251l110 37V0H27v-26" id="H"/><path d="M276-509c158 0 231 103 231 260 0 153-81 260-233 260C115 11 35-90 35-249c0-153 87-260 241-260zm-1 459c107 0 145-91 145-199s-37-199-145-199-153 91-153 199c0 109 43 199 153 199" id="I"/><path d="M255-509c65 0 107 14 141 47v-197l-94-28v-22c58-14 117-27 174-42v677l83 26v22L396 15c0-21-1-54 0-79-36 39-79 75-151 75C100 11 35-86 35-231c0-155 64-278 220-278zm141 125c-22-39-80-64-135-64-109 0-139 105-139 215 0 100 41 183 141 183 70 0 104-49 133-95v-239" id="J"/><g id="a"><use transform="matrix(0.02666666666666667,0,0,0.02666666666666667,0,0)" xlink:href="#H"/><use transform="matrix(0.02666666666666667,0,0,0.02666666666666667,13.280000000000001,0)" xlink:href="#I"/><use transform="matrix(0.02666666666666667,0,0,0.02666666666666667,27.733333333333334,0)" xlink:href="#I"/><use transform="matrix(0.02666666666666667,0,0,0.02666666666666667,42.18666666666667,0)" xlink:href="#J"/></g><path d="M812-63l88 37V0H635v-26l89-37v-498L501 0h-82c-73-186-143-374-217-559v496l88 37V0H25v-26l89-37v-566l-89-36v-26h207c74 188 155 369 223 561 7 19 9 33 11 40 7-29 21-72 33-100l200-501h201v26l-88 36v566" id="K"/><path d="M233-514c87 3 156 45 156 132v302l83 27v23L310 12v-71c-35 38-70 69-138 70C85 12 27-46 30-134c4-141 149-158 281-173-1-16 1-41 0-60-1-92-140-105-204-56l-36 86H45c1-38-1-78 1-114 49-38 100-66 187-63zm77 261c-95 7-197 18-199 118-1 55 31 89 86 87 57-2 84-40 113-72v-133" id="L"/><path d="M25-481l177-41v459l83 37V0H31v-26l88-37v-368l-94-27v-23zm200-200c0 37-21 56-62 56-42 0-63-18-63-54 0-37 21-55 63-55 41 0 62 18 62 53" id="M"/><path d="M338-438c-74 0-103 54-140 95v280l78 37V0H26v-26l88-37v-360l-93-27v-23l177-41v91c34-39 85-86 153-86 100 1 162 43 162 145v301l88 37V0H346v-26l83-37v-298c-1-54-38-77-91-77" id="N"/><g id="b"><use transform="matrix(0.018,0,0,0.018,0,0)" xlink:href="#K"/><use transform="matrix(0.018,0,0,0.018,16.65,0)" xlink:href="#L"/><use transform="matrix(0.018,0,0,0.018,25.326,0)" xlink:href="#M"/><use transform="matrix(0.018,0,0,0.018,30.726,0)" xlink:href="#N"/></g><path d="M132-342c0 173 96 276 269 282 42 1 59-9 91-19l63-127h26L568-41c-55 26-100 52-177 52C176 11 40-119 40-336c0-172 87-283 210-339 92-42 242-34 324 6 2 52 0 118 1 175h-28l-48-128c-31-8-70-11-110-11-170 0-257 121-257 291" id="O"/><path d="M250 11C150 11 92-32 92-134v-294L5-454v-24l171-40v381c0 54 35 77 87 77 74 0 108-53 145-95v-273l-88-26v-24l168-40v436l83 27v23L408 10v-86c-38 42-83 87-158 87" id="P"/><path d="M316-434c-70 6-120 46-120 120v251l106 37V0H25v-26l88-36v-362l-92-27v-23l175-41v104c31-55 97-121 183-88v151h-26" id="Q"/><path d="M229-509c47 0 105 15 135 34v127h-26l-37-86c-64-27-173-19-165 61 8 84 122 76 177 120 33 26 64 57 62 116-3 100-76 148-174 148C136 11 92-5 50-31v-127h26l36 87c55 34 183 31 177-55-7-93-117-87-177-128-34-23-63-52-61-109 3-102 78-146 178-146" id="R"/><path d="M252-509c149 0 208 103 203 259H117c-1 108 29 194 135 194 63 0 113-26 147-60l44 43c-48 46-97 84-184 84C102 11 35-91 35-248c0-147 71-261 217-261zm126 200c19-124-147-176-220-93-20 23-30 59-37 93h257" id="S"/><g id="c"><use transform="matrix(0.018,0,0,0.018,0,0)" xlink:href="#O"/><use transform="matrix(0.018,0,0,0.018,11.088,0)" xlink:href="#I"/><use transform="matrix(0.018,0,0,0.018,20.843999999999998,0)" xlink:href="#P"/><use transform="matrix(0.018,0,0,0.018,31.391999999999996,0)" xlink:href="#Q"/><use transform="matrix(0.018,0,0,0.018,38.645999999999994,0)" xlink:href="#R"/><use transform="matrix(0.018,0,0,0.018,46.295999999999985,0)" xlink:href="#S"/><use transform="matrix(0.018,0,0,0.018,55.20599999999999,0)" xlink:href="#R"/></g><path d="M659-629L396 0h-82L58-629l-78-36v-26h254v26l-79 37c68 180 148 348 206 538 60-188 139-358 206-538l-79-37v-26h248v26" id="T"/><path d="M171-186c-28 9-72 68-16 82C280-73 468-83 468 67c0 156-143 209-304 189-82-10-142-52-142-145C22 27 92-8 149-37 93-44 7-71 46-139c18-31 57-50 88-68-72-42-81-200-12-260 44-38 127-63 198-37l158-15v34l-83 38c32 34 44 118 23 175-31 81-147 125-247 86zm38 159C146-1 71 69 114 158c30 63 162 55 218 18 29-19 55-47 51-93-7-88-92-94-174-110zm-29-235c60 75 184 20 169-81-9-64-29-114-99-116-98-3-122 132-70 197" id="U"/><path d="M337-34c-33 20-79 45-128 45-81 1-119-46-119-127v-315H4v-37l87-30v-131l83-30v161h145v67H173v306c1 40 13 70 55 70 28 0 64-17 80-30" id="V"/><path d="M309 11c-66 0-102-14-137-47L94 0v-659L0-687v-22l176-39v312c35-40 73-73 142-73 146 0 217 97 217 242 0 157-70 278-226 278zm-6-61c110 0 145-104 145-215 0-101-47-178-148-181-65-2-98 48-124 91v239c23 39 71 66 127 66" id="W"/><path d="M25-711l178-41v689l94 37V0H31v-26l88-37v-598l-94-27v-23" id="X"/><g id="d"><use transform="matrix(0.018,0,0,0.018,0,0)" xlink:href="#T"/><use transform="matrix(0.018,0,0,0.018,11.933999999999997,0)" xlink:href="#S"/><use transform="matrix(0.018,0,0,0.018,20.843999999999998,0)" xlink:href="#U"/><use transform="matrix(0.018,0,0,0.018,29.447999999999997,0)" xlink:href="#S"/><use transform="matrix(0.018,0,0,0.018,38.358,0)" xlink:href="#V"/><use transform="matrix(0.018,0,0,0.018,44.513999999999996,0)" xlink:href="#L"/><use transform="matrix(0.018,0,0,0.018,53.19,0)" xlink:href="#W"/><use transform="matrix(0.018,0,0,0.018,63.449999999999996,0)" xlink:href="#X"/><use transform="matrix(0.018,0,0,0.018,68.976,0)" xlink:href="#S"/><use transform="matrix(0.018,0,0,0.018,77.886,0)" xlink:href="#R"/></g><path d="M294 0C209 0 108 2 25-1v-26l89-37v-571l-89-37v-26h292c227 1 370 93 370 321C687-133 537 0 294 0zm-92-68c248 21 391-75 393-304 2-221-163-272-393-256v560" id="Y"/><g id="e"><use transform="matrix(0.018,0,0,0.018,0,0)" xlink:href="#Y"/><use transform="matrix(0.018,0,0,0.018,13.085999999999999,0)" xlink:href="#S"/><use transform="matrix(0.018,0,0,0.018,21.996,0)" xlink:href="#R"/><use transform="matrix(0.018,0,0,0.018,29.645999999999997,0)" xlink:href="#R"/><use transform="matrix(0.018,0,0,0.018,37.296,0)" xlink:href="#S"/><use transform="matrix(0.018,0,0,0.018,46.206,0)" xlink:href="#Q"/><use transform="matrix(0.018,0,0,0.018,53.46,0)" xlink:href="#V"/><use transform="matrix(0.018,0,0,0.018,59.61600000000001,0)" xlink:href="#R"/></g><path d="M25-711l178-41v689l94 37V0H31v-26l88-37v-598l-94-27v-23zm276 430L490-56l77 30V0H425L208-260l188-201-69-28v-24h239v24l-102 33" id="Z"/><g id="f"><use transform="matrix(0.018,0,0,0.018,0,0)" xlink:href="#Y"/><use transform="matrix(0.018,0,0,0.018,13.085999999999999,0)" xlink:href="#Q"/><use transform="matrix(0.018,0,0,0.018,20.339999999999993,0)" xlink:href="#M"/><use transform="matrix(0.018,0,0,0.018,25.739999999999995,0)" xlink:href="#N"/><use transform="matrix(0.018,0,0,0.018,36.73799999999999,0)" xlink:href="#Z"/><use transform="matrix(0.018,0,0,0.018,46.853999999999985,0)" xlink:href="#R"/></g><g id="g"><use transform="matrix(0.018,0,0,0.018,0,0)" xlink:href="#O"/><use transform="matrix(0.018,0,0,0.018,11.088,0)" xlink:href="#L"/><use transform="matrix(0.018,0,0,0.018,19.764,0)" xlink:href="#Q"/><use transform="matrix(0.018,0,0,0.018,27.018,0)" xlink:href="#Q"/><use transform="matrix(0.018,0,0,0.018,34.056,0)" xlink:href="#I"/><use transform="matrix(0.018,0,0,0.018,43.812,0)" xlink:href="#V"/><use transform="matrix(0.018,0,0,0.018,49.967999999999996,0)" xlink:href="#R"/></g><path d="M173-486c82-41 198-28 258 29v121h-26l-37-87c-26-17-56-25-95-25-109 0-151 95-151 205 0 107 52 191 158 191 55 0 83-24 113-54l47 42c-40 40-91 76-173 75C110 8 35-93 35-243c0-118 57-202 138-243" id="aa"/><path d="M330-441c-71 2-99 56-135 95v283l83 37V0H27v-26l87-36v-361l-93-27v-23l174-41v90c37-40 87-85 159-85 64 1 125 34 134 93 42-42 86-91 165-93 99-3 146 54 145 151v295l89 37V0H632v-26l82-36v-300c1-48-32-81-80-79-71 4-99 57-137 97l1 281 83 37V0H338v-26l76-36v-299c1-48-37-82-84-80" id="ab"/><g id="h"><use transform="matrix(0.018,0,0,0.018,0,0)" xlink:href="#O"/><use transform="matrix(0.018,0,0,0.018,11.088,0)" xlink:href="#P"/><use transform="matrix(0.018,0,0,0.018,21.636,0)" xlink:href="#aa"/><use transform="matrix(0.018,0,0,0.018,30.006,0)" xlink:href="#P"/><use transform="matrix(0.018,0,0,0.018,40.554,0)" xlink:href="#ab"/><use transform="matrix(0.018,0,0,0.018,56.7,0)" xlink:href="#W"/><use transform="matrix(0.018,0,0,0.018,66.96000000000001,0)" xlink:href="#S"/><use transform="matrix(0.018,0,0,0.018,75.87,0)" xlink:href="#Q"/></g><path d="M270-703c81-2 142 16 187 48v159h-26l-44-113c-29-15-58-27-110-26-74 3-130 32-130 106 0 126 160 125 239 187 44 35 87 78 84 156C466-56 380 8 250 11 165 13 102-9 55-43v-156h26l41 115c30 18 67 27 121 25 77-3 137-36 137-115 0-130-158-131-238-194-44-35-87-78-84-158 5-120 91-174 212-177" id="ac"/><g id="i"><use transform="matrix(0.018,0,0,0.018,0,0)" xlink:href="#ac"/><use transform="matrix(0.018,0,0,0.018,9.45,0)" xlink:href="#L"/><use transform="matrix(0.018,0,0,0.018,18.125999999999998,0)" xlink:href="#X"/><use transform="matrix(0.018,0,0,0.018,23.651999999999997,0)" xlink:href="#ab"/><use transform="matrix(0.018,0,0,0.018,39.797999999999995,0)" xlink:href="#I"/><use transform="matrix(0.018,0,0,0.018,49.553999999999995,0)" xlink:href="#N"/></g><path d="M496-494l-48-125H308v556l109 37V0H111v-26l108-36v-557H76L28-494H0v-198h523v198h-27" id="ad"/><g id="j"><use transform="matrix(0.018,0,0,0.018,0,0)" xlink:href="#ad"/><use transform="matrix(0.018,0,0,0.018,8.766,0)" xlink:href="#P"/><use transform="matrix(0.018,0,0,0.018,19.314,0)" xlink:href="#N"/><use transform="matrix(0.018,0,0,0.018,30.311999999999998,0)" xlink:href="#L"/></g><path d="M321-692c143-6 225 50 225 190 0 186-148 226-344 214v225l88 37V0H24v-26l89-37v-566l-88-36v-26zm135 192c0-137-121-141-254-131v278c142 8 254-7 254-147" id="ae"/><path d="M377-449c-80 7-173 3-259 4l-37 88H55v-156h463C405-364 299-207 180-64c81-5 172-2 258-3l37-88h26V0H40c113-149 219-305 337-449" id="af"/><g id="k"><use transform="matrix(0.018,0,0,0.018,0,0)" xlink:href="#ae"/><use transform="matrix(0.018,0,0,0.018,10.097999999999999,0)" xlink:href="#M"/><use transform="matrix(0.018,0,0,0.018,15.497999999999998,0)" xlink:href="#af"/><use transform="matrix(0.018,0,0,0.018,25.631999999999998,0)" xlink:href="#af"/><use transform="matrix(0.018,0,0,0.018,35.766,0)" xlink:href="#L"/></g><path d="M343-438c-73 0-104 54-141 95v280l78 37V0H30v-26l88-37v-600l-93-27v-23l177-41v331c34-39 86-86 154-86 100 1 161 43 161 145v301l88 37V0H350v-26l83-37v-298c-1-54-38-77-90-77" id="ag"/><g id="l"><use transform="matrix(0.018,0,0,0.018,0,0)" xlink:href="#H"/><use transform="matrix(0.018,0,0,0.018,8.963999999999999,0)" xlink:href="#M"/><use transform="matrix(0.018,0,0,0.018,14.363999999999997,0)" xlink:href="#R"/><use transform="matrix(0.018,0,0,0.018,22.013999999999996,0)" xlink:href="#ag"/></g><g id="m"><use transform="matrix(0.018,0,0,0.018,0,0)" xlink:href="#ae"/><use transform="matrix(0.018,0,0,0.018,9.45,0)" xlink:href="#L"/><use transform="matrix(0.018,0,0,0.018,18.125999999999998,0)" xlink:href="#R"/><use transform="matrix(0.018,0,0,0.018,25.776,0)" xlink:href="#V"/><use transform="matrix(0.018,0,0,0.018,31.931999999999995,0)" xlink:href="#L"/></g><g id="n"><use transform="matrix(0.018,0,0,0.018,0,0)" xlink:href="#ae"/><use transform="matrix(0.018,0,0,0.018,10.097999999999999,0)" xlink:href="#X"/><use transform="matrix(0.018,0,0,0.018,15.623999999999999,0)" xlink:href="#L"/><use transform="matrix(0.018,0,0,0.018,24.299999999999997,0)" xlink:href="#M"/><use transform="matrix(0.018,0,0,0.018,29.7,0)" xlink:href="#N"/></g><g id="o"><use transform="matrix(0.018,0,0,0.018,0,0)" xlink:href="#O"/><use transform="matrix(0.018,0,0,0.018,11.088,0)" xlink:href="#ag"/><use transform="matrix(0.018,0,0,0.018,22.157999999999998,0)" xlink:href="#I"/><use transform="matrix(0.018,0,0,0.018,31.913999999999994,0)" xlink:href="#aa"/><use transform="matrix(0.018,0,0,0.018,40.28399999999999,0)" xlink:href="#I"/><use transform="matrix(0.018,0,0,0.018,50.039999999999985,0)" xlink:href="#X"/><use transform="matrix(0.018,0,0,0.018,55.56599999999999,0)" xlink:href="#L"/><use transform="matrix(0.018,0,0,0.018,64.24199999999999,0)" xlink:href="#V"/><use transform="matrix(0.018,0,0,0.018,70.398,0)" xlink:href="#S"/></g><g id="p"><use transform="matrix(0.018,0,0,0.018,0,0)" xlink:href="#T"/><use transform="matrix(0.018,0,0,0.018,11.933999999999997,0)" xlink:href="#L"/><use transform="matrix(0.018,0,0,0.018,20.61,0)" xlink:href="#N"/><use transform="matrix(0.018,0,0,0.018,31.607999999999997,0)" xlink:href="#M"/><use transform="matrix(0.018,0,0,0.018,37.007999999999996,0)" xlink:href="#X"/><use transform="matrix(0.018,0,0,0.018,42.53399999999999,0)" xlink:href="#X"/><use transform="matrix(0.018,0,0,0.018,48.05999999999999,0)" xlink:href="#L"/></g><path d="M324 11c-66 0-101-13-136-46v229l110 33v26H20v-26l88-33v-614l-88-27v-24l168-41v77c37-38 77-75 149-74 145 2 210 98 210 243 0 155-67 277-223 277zm-6-61c110 0 142-104 142-214 0-101-41-181-141-184-65-2-102 52-128 94l1 240c23 39 70 64 126 64" id="ah"/><g id="q"><use transform="matrix(0.018,0,0,0.018,0,0)" xlink:href="#ad"/><use transform="matrix(0.018,0,0,0.018,8.766,0)" xlink:href="#L"/><use transform="matrix(0.018,0,0,0.018,17.442,0)" xlink:href="#ah"/><use transform="matrix(0.018,0,0,0.018,27.918,0)" xlink:href="#M"/><use transform="matrix(0.018,0,0,0.018,33.318,0)" xlink:href="#I"/><use transform="matrix(0.018,0,0,0.018,43.074,0)" xlink:href="#aa"/><use transform="matrix(0.018,0,0,0.018,51.443999999999996,0)" xlink:href="#L"/></g><g id="r"><use transform="matrix(0.018,0,0,0.018,0,0)" xlink:href="#O"/><use transform="matrix(0.018,0,0,0.018,11.088,0)" xlink:href="#ag"/><use transform="matrix(0.018,0,0,0.018,22.157999999999998,0)" xlink:href="#I"/><use transform="matrix(0.018,0,0,0.018,31.913999999999994,0)" xlink:href="#aa"/><use transform="matrix(0.018,0,0,0.018,40.28399999999999,0)" xlink:href="#I"/><use transform="matrix(0.018,0,0,0.018,50.039999999999985,0)" xlink:href="#X"/><use transform="matrix(0.018,0,0,0.018,55.56599999999999,0)" xlink:href="#L"/><use transform="matrix(0.018,0,0,0.018,64.24199999999999,0)" xlink:href="#U"/><use transform="matrix(0.018,0,0,0.018,72.84599999999999,0)" xlink:href="#S"/></g><g id="s"><use transform="matrix(0.018,0,0,0.018,0,0)" xlink:href="#O"/><use transform="matrix(0.018,0,0,0.018,11.088,0)" xlink:href="#ag"/><use transform="matrix(0.018,0,0,0.018,22.157999999999998,0)" xlink:href="#S"/><use transform="matrix(0.018,0,0,0.018,31.067999999999998,0)" xlink:href="#S"/><use transform="matrix(0.018,0,0,0.018,39.977999999999994,0)" xlink:href="#R"/><use transform="matrix(0.018,0,0,0.018,47.62799999999999,0)" xlink:href="#S"/><use transform="matrix(0.018,0,0,0.018,56.538,0)" xlink:href="#aa"/><use transform="matrix(0.018,0,0,0.018,64.908,0)" xlink:href="#L"/><use transform="matrix(0.018,0,0,0.018,73.584,0)" xlink:href="#Z"/><use transform="matrix(0.018,0,0,0.018,83.70000000000002,0)" xlink:href="#S"/></g><path d="M202-63l88 37V0H25v-26l89-37v-566l-89-36v-26h265v26l-88 36v566" id="ai"/><g id="t"><use transform="matrix(0.018,0,0,0.018,0,0)" xlink:href="#ai"/><use transform="matrix(0.018,0,0,0.018,5.67,0)" xlink:href="#aa"/><use transform="matrix(0.018,0,0,0.018,14.04,0)" xlink:href="#S"/></g><g id="u"><use transform="matrix(0.018,0,0,0.018,0,0)" xlink:href="#O"/><use transform="matrix(0.018,0,0,0.018,11.088,0)" xlink:href="#Q"/><use transform="matrix(0.018,0,0,0.018,18.125999999999998,0)" xlink:href="#S"/><use transform="matrix(0.018,0,0,0.018,27.035999999999998,0)" xlink:href="#L"/><use transform="matrix(0.018,0,0,0.018,35.711999999999996,0)" xlink:href="#ab"/></g><g id="v"><use transform="matrix(0.018,0,0,0.018,0,0)" xlink:href="#ae"/><use transform="matrix(0.018,0,0,0.018,10.097999999999999,0)" xlink:href="#P"/><use transform="matrix(0.018,0,0,0.018,20.646,0)" xlink:href="#J"/><use transform="matrix(0.018,0,0,0.018,30.887999999999998,0)" xlink:href="#J"/><use transform="matrix(0.018,0,0,0.018,41.129999999999995,0)" xlink:href="#M"/><use transform="matrix(0.018,0,0,0.018,46.529999999999994,0)" xlink:href="#N"/><use transform="matrix(0.018,0,0,0.018,57.528,0)" xlink:href="#U"/></g><g id="w"><use transform="matrix(0.018,0,0,0.018,0,0)" xlink:href="#O"/><use transform="matrix(0.018,0,0,0.018,11.088,0)" xlink:href="#L"/><use transform="matrix(0.018,0,0,0.018,19.764,0)" xlink:href="#Z"/><use transform="matrix(0.018,0,0,0.018,29.88,0)" xlink:href="#S"/></g><path d="M190 35c0 169-106 230-286 217v-46c123 0 197-55 198-179v-656l-89-36v-26h264v26l-87 36V35" id="aj"/><g id="x"><use transform="matrix(0.018,0,0,0.018,0,0)" xlink:href="#aj"/><use transform="matrix(0.018,0,0,0.018,5.076,0)" xlink:href="#P"/><use transform="matrix(0.018,0,0,0.018,15.623999999999999,0)" xlink:href="#M"/><use transform="matrix(0.018,0,0,0.018,21.023999999999997,0)" xlink:href="#aa"/><use transform="matrix(0.018,0,0,0.018,29.394,0)" xlink:href="#S"/></g><path d="M153-630c51 181 115 349 154 542 53-209 123-402 183-604h96c60 201 129 394 180 604 42-191 107-361 158-542l-80-37v-26h248v26l-81 37L808 0h-96c-60-202-129-395-180-606C480-387 409-200 351 0h-95L61-630l-81-37v-26h253v26" id="ak"/><g id="y"><use transform="matrix(0.018,0,0,0.018,0,0)" xlink:href="#ak"/><use transform="matrix(0.018,0,0,0.018,18.558,0)" xlink:href="#L"/><use transform="matrix(0.018,0,0,0.018,27.234,0)" xlink:href="#V"/><use transform="matrix(0.018,0,0,0.018,33.39,0)" xlink:href="#S"/><use transform="matrix(0.018,0,0,0.018,42.3,0)" xlink:href="#Q"/></g><path d="M116-498c-10-162 38-266 193-264h66v148h-26l-37-88c-104-4-119 93-113 204h119v68H198v367l110 37V0H27v-26l88-37v-367H26v-38" id="al"/><g id="z"><use transform="matrix(0.018,0,0,0.018,0,0)" xlink:href="#O"/><use transform="matrix(0.018,0,0,0.018,11.088,0)" xlink:href="#I"/><use transform="matrix(0.018,0,0,0.018,20.843999999999998,0)" xlink:href="#al"/><use transform="matrix(0.018,0,0,0.018,27.035999999999998,0)" xlink:href="#al"/><use transform="matrix(0.018,0,0,0.018,33.227999999999994,0)" xlink:href="#S"/><use transform="matrix(0.018,0,0,0.018,42.13799999999999,0)" xlink:href="#S"/></g><g id="A"><use transform="matrix(0.018,0,0,0.018,0,0)" xlink:href="#ad"/><use transform="matrix(0.018,0,0,0.018,8.766,0)" xlink:href="#S"/><use transform="matrix(0.018,0,0,0.018,17.676000000000002,0)" xlink:href="#L"/></g><path d="M529-192C521 37 266 1 25 0v-26l89-37v-570l-89-37v-26c212 9 489-58 489 172 0 88-57 137-127 157 86 16 146 70 142 175zM198-62c128 13 240-9 240-138 0-127-111-135-240-129v267zm1-332c122 6 225-8 225-125 0-116-108-117-225-113v238" id="am"/><g id="B"><use transform="matrix(0.018,0,0,0.018,0,0)" xlink:href="#am"/><use transform="matrix(0.018,0,0,0.018,10.331999999999999,0)" xlink:href="#S"/><use transform="matrix(0.018,0,0,0.018,19.241999999999997,0)" xlink:href="#L"/><use transform="matrix(0.018,0,0,0.018,27.918,0)" xlink:href="#N"/><use transform="matrix(0.018,0,0,0.018,38.916,0)" xlink:href="#R"/></g><g id="C"><use transform="matrix(0.018,0,0,0.018,0,0)" xlink:href="#ae"/><use transform="matrix(0.018,0,0,0.018,9.45,0)" xlink:href="#S"/><use transform="matrix(0.018,0,0,0.018,18.36,0)" xlink:href="#L"/><use transform="matrix(0.018,0,0,0.018,27.036,0)" xlink:href="#R"/></g><path d="M490 0H25v-26l89-37v-566l-89-37v-26h267v26l-88 37v556h210l66-129h26" id="an"/><g id="D"><use transform="matrix(0.018,0,0,0.018,0,0)" xlink:href="#an"/><use transform="matrix(0.018,0,0,0.018,9.197999999999999,0)" xlink:href="#S"/><use transform="matrix(0.018,0,0,0.018,18.107999999999997,0)" xlink:href="#U"/><use transform="matrix(0.018,0,0,0.018,26.712,0)" xlink:href="#P"/><use transform="matrix(0.018,0,0,0.018,37.26,0)" xlink:href="#ab"/><use transform="matrix(0.018,0,0,0.018,53.405999999999985,0)" xlink:href="#S"/><use transform="matrix(0.018,0,0,0.018,62.31599999999999,0)" xlink:href="#R"/></g><g id="E"><use transform="matrix(0.018,0,0,0.018,0,0)" xlink:href="#an"/><use transform="matrix(0.018,0,0,0.018,9.197999999999999,0)" xlink:href="#S"/><use transform="matrix(0.018,0,0,0.018,18.107999999999997,0)" xlink:href="#V"/><use transform="matrix(0.018,0,0,0.018,24.263999999999996,0)" xlink:href="#V"/><use transform="matrix(0.018,0,0,0.018,30.419999999999995,0)" xlink:href="#P"/><use transform="matrix(0.018,0,0,0.018,40.967999999999996,0)" xlink:href="#aa"/><use transform="matrix(0.018,0,0,0.018,49.337999999999994,0)" xlink:href="#S"/></g><path d="M401-60c42 1 60-15 92-28v-181l-88-35v-26h264v26l-89 35v232C493 3 363 32 256-13 132-65 40-166 40-336c0-172 87-283 210-339 92-42 242-34 324 6 2 52 0 118 1 175h-38l-48-128c-216-49-357 77-357 280 0 173 96 276 269 282" id="ao"/><g id="F"><use transform="matrix(0.018,0,0,0.018,0,0)" xlink:href="#ao"/><use transform="matrix(0.018,0,0,0.018,12.222,0)" xlink:href="#Q"/><use transform="matrix(0.018,0,0,0.018,19.476,0)" xlink:href="#L"/><use transform="matrix(0.018,0,0,0.018,28.152,0)" xlink:href="#ah"/><use transform="matrix(0.018,0,0,0.018,38.628,0)" xlink:href="#S"/></g><path d="M379-703c213 0 326 142 326 358 0 166-80 275-197 329-40 18-83 27-129 27C165 11 40-128 40-345c0-169 90-277 210-331 41-18 84-27 129-27zm0 644c158 0 234-122 234-284 0-165-74-290-237-290-161 0-244 120-244 286 0 167 84 288 247 288" id="ap"/><g id="G"><use transform="matrix(0.018,0,0,0.018,0,0)" xlink:href="#ap"/><use transform="matrix(0.018,0,0,0.018,13.409999999999998,0)" xlink:href="#Q"/><use transform="matrix(0.018,0,0,0.018,20.663999999999998,0)" xlink:href="#L"/><use transform="matrix(0.018,0,0,0.018,29.339999999999996,0)" xlink:href="#N"/><use transform="matrix(0.018,0,0,0.018,40.337999999999994,0)" xlink:href="#U"/><use transform="matrix(0.018,0,0,0.018,48.94199999999999,0)" xlink:href="#S"/></g></defs></g></svg>