<?xml version="1.0" encoding="UTF-8"?>
<svg width="50px" height="64px" viewBox="0 0 50 64" version="1.1" xmlns="http://www.w3.org/2000/svg" xmlns:xlink="http://www.w3.org/1999/xlink">
    <!-- Generator: Sketch 59.1 (86144) - https://sketch.com -->
    <title>Blog Portfolio Icon</title>
    <desc>Created with Sketch.</desc>
    <defs>
        <polygon id="path-1" points="0.359852476 0 50.3598525 0 50.3598525 64 0.359852476 64"></polygon>
    </defs>
    <g id="Page-1" stroke="none" stroke-width="1" fill="none" fill-rule="evenodd">
        <g id="Landing-Copy" transform="translate(-694.000000, -1466.000000)">
            <g id="Blog-Portfolio-Icon" transform="translate(693.640148, 1466.000000)">
                <mask id="mask-2" fill="white">
                    <use xlink:href="#path-1"></use>
                </mask>
                <g id="Clip-2"></g>
                <path d="M13.2561832,11.3394327 C13.2561832,10.7775673 13.7012891,10.3217143 14.2503336,10.3217143 L38.2805276,10.3217143 C38.8299175,10.3217143 39.2750234,10.7775673 39.2750234,11.3394327 L39.2750234,19.6589274 C39.2750234,20.2207928 38.8299175,20.6766458 38.2805276,20.6766458 L14.2503336,20.6766458 C13.7012891,20.6766458 13.2561832,20.2207928 13.2561832,19.6589274 L13.2561832,11.3394327 Z M8.33860894,59.7595066 C6.69043944,59.7595066 5.35443109,58.3923009 5.35443109,56.7056446 L5.35443109,55.0313565 C5.35443109,53.3447002 6.69043944,51.9774945 8.33860894,51.9774945 L50.3598525,51.9774945 L50.3598525,2.82134161 C50.3598525,1.26296028 49.1257109,0 47.6028893,0 L5.95838007,0 C2.86646518,0 0.359852476,2.56514513 0.359852476,5.72961333 L0.359852476,58.2304554 C0.359852476,61.4171861 2.88373073,64 5.99740022,64 L47.6028893,64 C49.1257109,64 50.3598525,62.7366863 50.3598525,61.1786584 L50.3598525,59.7595066 L8.33860894,59.7595066 Z" id="Fill-1" fill="#4D80A1" mask="url(#mask-2)"></path>
            </g>
        </g>
    </g>
</svg>