<?xml version="1.0" encoding="UTF-8"?>
<svg width="169px" height="169px" viewBox="0 0 169 169" version="1.1" xmlns="http://www.w3.org/2000/svg" xmlns:xlink="http://www.w3.org/1999/xlink">
    <!-- Generator: Sketch 59.1 (86144) - https://sketch.com -->
    <title>Design</title>
    <desc>Created with Sketch.</desc>
    <defs>
        <polygon id="path-1" points="0.43562 0.409758242 68.4205368 0.409758242 68.4205368 58.5061505 0.43562 58.5061505"></polygon>
        <polygon id="path-3" points="0 0.375 19.3879333 0.375 19.3879333 19.7636667 0 19.7636667"></polygon>
        <polygon id="path-5" points="0.481 0.561866667 19.8686667 0.561866667 19.8686667 19.9498667 0.481 19.9498667"></polygon>
    </defs>
    <g id="Page-1" stroke="none" stroke-width="1" fill="none" fill-rule="evenodd">
        <g id="Design-Icon-Copy" transform="translate(42.000000, 44.000000)">
            <g id="Group-3" transform="translate(6.000000, 0.000000)">
                <mask id="mask-2" fill="white">
                    <use xlink:href="#path-1"></use>
                </mask>
                <g id="Clip-2"></g>
                <path d="M0.43562,58.5061505 L22.5898771,14.8610626 C23.3541343,13.3542934 24.6079629,12.1438209 26.1509343,11.4222055 L48.1481343,1.13675495 C51.2873057,-0.331113187 55.0343343,0.473491209 57.2705914,3.09542527 L66.62502,14.0603484 C68.9789057,16.819733 69.0229343,20.8375681 66.7301629,23.6468758 L52.60422,40.9559198 C51.6579343,42.1145242 50.3863629,42.9716451 48.9478771,43.4183593 L0.43562,58.5061505 Z" id="Fill-1" fill="#4C80A2" mask="url(#mask-2)"></path>
            </g>
            <path d="M42.3325752,84 C38.1956164,84 34.2297151,83.4126246 30.4414504,82.2358804 C14.0311193,77.1395349 7.27961315,62.8564784 7,62.2511628 L11.7711872,60.0059801 L9.38559358,61.1282392 L11.7685555,60 C11.8277677,60.1275748 17.8963599,72.8159468 32.0632067,77.1780731 C43.9872271,80.8511628 58.1955224,77.7880399 74.3032134,68.0810631 L77,72.6451827 C64.4588569,80.2033223 52.8473453,84 42.3325752,84" id="Fill-14" fill="#F6ABBD"></path>
            <line x1="7" y1="59" x2="45" y2="27" id="Fill-4" fill="#FFFFFF"></line>
            <polygon id="Fill-6" fill="#FFFFFF" points="8.35852604 61 5 56.9545397 43.641474 25 47 29.0454603"></polygon>
            <g id="Group-10" transform="translate(0.000000, 48.000000)">
                <mask id="mask-4" fill="white">
                    <use xlink:href="#path-3"></use>
                </mask>
                <g id="Clip-9"></g>
                <path d="M19.3879333,7.375 L19.3879333,12.7636667 C19.3879333,16.6296667 16.2546,19.7636667 12.3886,19.7636667 L6.99993333,19.7636667 C3.13393333,19.7636667 -6.66666667e-05,16.6296667 -6.66666667e-05,12.7636667 L-6.66666667e-05,7.375 C-6.66666667e-05,3.509 3.13393333,0.375 6.99993333,0.375 L12.3886,0.375 C16.2546,0.375 19.3879333,3.509 19.3879333,7.375" id="Fill-8" fill="#D42C41" mask="url(#mask-4)"></path>
            </g>
            <g id="Group-13" transform="translate(65.000000, 59.000000)">
                <mask id="mask-6" fill="white">
                    <use xlink:href="#path-5"></use>
                </mask>
                <g id="Clip-12"></g>
                <path d="M19.869,7.56186667 L19.869,12.9505333 C19.869,16.8165333 16.735,19.9498667 12.869,19.9498667 L7.48033333,19.9498667 C3.61433333,19.9498667 0.481,16.8165333 0.481,12.9505333 L0.481,7.56186667 C0.481,3.69586667 3.61433333,0.561866667 7.48033333,0.561866667 L12.869,0.561866667 C16.735,0.561866667 19.869,3.69586667 19.869,7.56186667" id="Fill-11" fill="#D42C41" mask="url(#mask-6)"></path>
            </g>
        </g>
    </g>
</svg>