<?xml version="1.0" encoding="UTF-8"?>
<svg width="169px" height="169px" viewBox="0 0 169 169" version="1.1" xmlns="http://www.w3.org/2000/svg" xmlns:xlink="http://www.w3.org/1999/xlink">
    <!-- Generator: Sketch 59.1 (86144) - https://sketch.com -->
    <title>Operations</title>
    <desc>Created with Sketch.</desc>
    <defs>
        <polygon id="path-1" points="0 0.534130435 58.7632868 0.534130435 58.7632868 14.4810652 0 14.4810652"></polygon>
        <polygon id="path-3" points="0.18101978 0.534130435 58.9443714 0.534130435 58.9443714 14.4810652 0.18101978 14.4810652"></polygon>
        <polygon id="path-5" points="0 0.390854545 67.8735585 0.390854545 67.8735585 14 0 14"></polygon>
        <polygon id="path-7" points="0.288326316 0.390854545 48.9446816 0.390854545 48.9446816 14 0.288326316 14"></polygon>
        <polygon id="path-9" points="0 0.412695652 27.5674326 0.412695652 27.5674326 14.360087 0 14.360087"></polygon>
    </defs>
    <g id="Page-1" stroke="none" stroke-width="1" fill="none" fill-rule="evenodd">
        <g id="Operations-Icon-Copy" transform="translate(25.000000, 55.000000)">
            <g id="Group-3" transform="translate(0.000000, 0.081301)">
                <mask id="mask-2" fill="white">
                    <use xlink:href="#path-1"></use>
                </mask>
                <g id="Clip-2"></g>
                <path d="M53.6957703,14.4810652 L5.06745165,14.4810652 C2.26916593,14.4810652 -6.48351648e-05,12.1984565 -6.48351648e-05,9.38367391 L-6.48351648e-05,5.63171739 C-6.48351648e-05,2.81563043 2.26916593,0.533673913 5.06745165,0.533673913 L53.6957703,0.533673913 C56.4947044,0.533673913 58.7632868,2.81563043 58.7632868,5.63171739 L58.7632868,9.38367391 C58.7632868,12.1984565 56.4947044,14.4810652 53.6957703,14.4810652" id="Fill-1" fill="#4C80A2" mask="url(#mask-2)"></path>
            </g>
            <g id="Group-6" transform="translate(64.000000, 0.081301)">
                <mask id="mask-4" fill="white">
                    <use xlink:href="#path-3"></use>
                </mask>
                <g id="Clip-5"></g>
                <path d="M53.8768549,14.4810652 L5.24853626,14.4810652 C2.45025055,14.4810652 0.18101978,12.1984565 0.18101978,9.38367391 L0.18101978,5.63171739 C0.18101978,2.81563043 2.45025055,0.533673913 5.24853626,0.533673913 L53.8768549,0.533673913 C56.675789,0.533673913 58.9443714,2.81563043 58.9443714,5.63171739 L58.9443714,9.38367391 C58.9443714,12.1984565 56.675789,14.4810652 53.8768549,14.4810652" id="Fill-4" fill="#D42C41" mask="url(#mask-4)"></path>
            </g>
            <g id="Group-9" transform="translate(0.000000, 44.081301)">
                <mask id="mask-6" fill="white">
                    <use xlink:href="#path-5"></use>
                </mask>
                <g id="Clip-8"></g>
                <path d="M62.8595208,14.0001273 L5.01397358,14.0001273 C2.24521887,14.0001273 -6.41509434e-05,11.7728545 -6.41509434e-05,9.02630909 L-6.41509434e-05,5.36530909 C-6.41509434e-05,2.61749091 2.24521887,0.390854545 5.01397358,0.390854545 L62.8595208,0.390854545 C65.628917,0.390854545 67.8735585,2.61749091 67.8735585,5.36530909 L67.8735585,9.02630909 C67.8735585,11.7728545 65.628917,14.0001273 62.8595208,14.0001273" id="Fill-7" fill="#D42C41" mask="url(#mask-6)"></path>
            </g>
            <g id="Group-12" transform="translate(74.000000, 44.081301)">
                <mask id="mask-8" fill="white">
                    <use xlink:href="#path-7"></use>
                </mask>
                <g id="Clip-11"></g>
                <path d="M43.9054184,14.0001273 L5.32758947,14.0001273 C2.54426053,14.0001273 0.288326316,11.7728545 0.288326316,9.02630909 L0.288326316,5.36530909 C0.288326316,2.61749091 2.54426053,0.390854545 5.32758947,0.390854545 L43.9054184,0.390854545 C46.6887474,0.390854545 48.9446816,2.61749091 48.9446816,5.36530909 L48.9446816,9.02630909 C48.9446816,11.7728545 46.6887474,14.0001273 43.9054184,14.0001273" id="Fill-10" fill="#4C80A2" mask="url(#mask-8)"></path>
            </g>
            <g id="Group-15" transform="translate(0.000000, 21.081301)">
                <mask id="mask-10" fill="white">
                    <use xlink:href="#path-9"></use>
                </mask>
                <g id="Clip-14"></g>
                <path d="M24.0889209,14.360087 L3.47896744,14.360087 C1.55738605,14.360087 -0.000195348837,12.7994348 -0.000195348837,10.8755217 L-0.000195348837,3.8966087 C-0.000195348837,1.97269565 1.55738605,0.412695652 3.47896744,0.412695652 L24.0889209,0.412695652 C26.0098512,0.412695652 27.5674326,1.97269565 27.5674326,3.8966087 L27.5674326,10.8755217 C27.5674326,12.7994348 26.0098512,14.360087 24.0889209,14.360087" id="Fill-13" fill="#4C80A2" mask="url(#mask-10)"></path>
            </g>
            <path d="M100.172243,37.0813008 L37.8277569,37.0813008 C35.1618074,37.0813008 33,34.888932 33,32.1852941 L33,27.9766529 C33,25.273015 35.1618074,23.0813008 37.8277569,23.0813008 L100.172243,23.0813008 C102.838838,23.0813008 105,25.273015 105,27.9766529 L105,32.1852941 C105,34.888932 102.838838,37.0813008 100.172243,37.0813008" id="Fill-16" fill="#F6ABBD"></path>
        </g>
    </g>
</svg>