<?xml version="1.0" encoding="UTF-8"?>
<svg width="24px" height="20px" viewBox="0 0 24 20" version="1.1" xmlns="http://www.w3.org/2000/svg" xmlns:xlink="http://www.w3.org/1999/xlink">
    <!-- Generator: Sketch 63.1 (92452) - https://sketch.com -->
    <title>LinkedIn-color</title>
    <desc>Created with Sketch.</desc>
    <g id="Symbols" stroke="none" stroke-width="1" fill="none" fill-rule="evenodd">
        <g id="footer" transform="translate(-576.000000, -295.000000)" fill="#fff">
            <g id="Group-5">
                <path d="M600,315 L594.793466,315 L594.793466,307.9692 C594.793466,306.128898 593.979036,304.872575 592.188122,304.872575 C590.818273,304.872575 590.056476,305.720369 589.701895,306.537427 C589.568926,306.830697 589.589703,307.239226 589.589703,307.647756 L589.589703,315 L584.431647,315 C584.431647,315 584.498131,302.545623 584.431647,301.413524 L589.589703,301.413524 L589.589703,303.545815 C589.894421,302.613498 591.542672,301.282897 594.172948,301.282897 C597.436208,301.282897 600,303.237177 600,307.445412 L600,315 L600,315 Z M579.215418,299.714094 L579.182176,299.714094 C577.520074,299.714094 576.442478,298.675482 576.442478,297.358968 C576.442478,296.016841 577.551931,295 579.247275,295 C580.941233,295 581.982817,296.014279 582.016059,297.355126 C582.016059,298.67164 580.941233,299.714094 579.215418,299.714094 L579.215418,299.714094 L579.215418,299.714094 Z M577.036679,301.413524 L581.628235,301.413524 L581.628235,315 L577.036679,315 L577.036679,301.413524 L577.036679,301.413524 Z" id="LinkedIn"></path>
            </g>
        </g>
    </g>
</svg>