<?xml version="1.0" encoding="UTF-8"?>
<svg width="26px" height="20px" viewBox="0 0 26 20" version="1.1" xmlns="http://www.w3.org/2000/svg" xmlns:xlink="http://www.w3.org/1999/xlink">
    <!-- Generator: Sketch 63.1 (92452) - https://sketch.com -->
    <title>Twitter-color</title>
    <desc>Created with Sketch.</desc>
    <g id="Symbols" stroke="none" stroke-width="1" fill="none" fill-rule="evenodd">
        <g id="footer" transform="translate(-528.000000, -297.000000)" fill="#fff">
            <g id="Group-5">
                <path d="M553.955752,299.367642 C553.011475,299.769231 551.994794,300.040809 550.928334,300.162152 C552.01742,299.5381 552.85309,298.548573 553.24679,297.369809 C552.227092,297.947635 551.100295,298.368003 549.896568,298.593355 C548.937207,297.612495 547.566044,297 546.048564,297 C543.138804,297 540.778111,299.260744 540.778111,302.048754 C540.778111,302.444565 540.823364,302.828819 540.91387,303.198628 C536.531882,302.987721 532.647676,300.979776 530.045635,297.921632 C529.591597,298.669917 529.332147,299.5381 529.332147,300.462622 C529.332147,302.213434 530.262849,303.759119 531.677755,304.664861 C530.814934,304.640303 530.000382,304.410618 529.288403,304.035031 L529.288403,304.097147 C529.288403,306.54424 531.106061,308.58541 533.519548,309.047671 C533.077578,309.166125 532.611473,309.225352 532.130284,309.225352 C531.790888,309.225352 531.459033,309.195016 531.137738,309.135789 C531.808989,311.140845 533.754863,312.6013 536.06276,312.640303 C534.258679,313.995305 531.983967,314.802817 529.514667,314.802817 C529.08929,314.802817 528.668438,314.779704 528.256637,314.733478 C530.590178,316.163597 533.362671,317 536.338803,317 C546.038005,317 551.340135,309.307692 551.340135,302.635247 C551.340135,302.415674 551.33561,302.1961 551.326559,301.98086 C552.356817,301.268689 553.251316,300.380282 553.955752,299.367642" id="Twitter"></path>
            </g>
        </g>
    </g>
</svg>