<?xml version="1.0" encoding="UTF-8"?>
<svg width="26px" height="24px" viewBox="0 0 26 24" version="1.1" xmlns="http://www.w3.org/2000/svg" xmlns:xlink="http://www.w3.org/1999/xlink">
    <!-- Generator: Sketch 63.1 (92452) - https://sketch.com -->
    <title>Facebook-color</title>
    <desc>Created with Sketch.</desc>
    <g id="Symbols" stroke="none" stroke-width="1" fill="none" fill-rule="evenodd">
        <g id="footer" transform="translate(-479.000000, -295.000000)" fill="#fff">
            <g id="Group-5">
                <path d="M480.418394,319 C479.634807,319 479,318.406796 479,317.675301 L479,296.324605 C479,295.592925 479.634907,295 480.418394,295 L503.280821,295 C504.064109,295 504.699115,295.592925 504.699115,296.324605 L504.699115,317.675301 C504.699115,318.406889 504.064009,319 503.280821,319 L496.732017,319 L496.732017,309.705877 L500.072483,309.705877 L500.57267,306.083793 L496.732017,306.083793 L496.732017,303.771321 C496.732017,302.722644 497.043837,302.008005 498.654089,302.008005 L500.707888,302.007167 L500.707888,298.767545 C500.352691,298.723404 499.133535,298.624785 497.715141,298.624785 C494.754004,298.624785 492.72673,300.312763 492.72673,303.412604 L492.72673,306.083793 L489.377689,306.083793 L489.377689,309.705877 L492.72673,309.705877 L492.72673,319 L480.418394,319 Z" id="Facebook"></path>
            </g>
        </g>
    </g>
</svg>