<svg width="297px" height="54px" viewBox="0 0 297 54">
    <defs>
        <polygon id="path-1" points="0.935173132 0 1610.93517 0 1610.93517 1487 0.935173132 1487"></polygon>
    </defs>
    <g id="Page-1" stroke="none" stroke-width="1" fill="none" fill-rule="evenodd">
        <mask id="mask-2" fill="white">
            <use xlink:href="#path-1"></use>
        </mask>
        <g id="Clip-2"></g>
        <path d="M951.740011,55.4838378 C927.210375,55.4838378 903.348381,47.4978255 883.7593,32.7316588 C825.859034,-10.9105529 784.723305,-10.9105529 726.823039,32.7316588 C707.233319,47.4978255 683.370687,55.4838378 658.842328,55.4838378 L0.935173132,55.4838378 L0.935173132,1428 L658.842328,1428 C683.370687,1428 707.233319,1420.01335 726.823039,1405.24782 C784.723305,1361.60561 825.859034,1361.60561 883.758661,1405.24782 C903.348381,1420.01335 927.210375,1428 951.740011,1428 L1610.93517,1428 L1610.93517,55.4838378 L951.740011,55.4838378 Z" id="Fill-1" fill="#C8DEF0" mask="url(#mask-2)"></path>
    </g>
</svg>